<svg xmlns="http://www.w3.org/2000/svg" viewBox="0 0 200 200" width="200" height="200">
  <defs>
    <linearGradient id="bg" x1="0%" y1="0%" x2="100%" y2="100%">
      <stop offset="0%" style="stop-color:#1a237e;stop-opacity:1" />
      <stop offset="100%" style="stop-color:#534bae;stop-opacity:1" />
    </linearGradient>
  </defs>
  <circle cx="100" cy="100" r="95" fill="url(#bg)" stroke="#f9a825" stroke-width="4"/>
  <circle cx="100" cy="100" r="82" fill="none" stroke="#f9a825" stroke-width="1.5"/>
  <!-- Book icon -->
  <g transform="translate(100,65)" fill="white">
    <path d="M-25,-15 L-25,20 Q0,10 25,20 L25,-15 Q0,-5 -25,-15Z" fill="white" opacity="0.9"/>
    <line x1="0" y1="-12" x2="0" y2="18" stroke="#1a237e" stroke-width="1.5"/>
    <path d="M-20,-10 L-5,-7" stroke="#1a237e" stroke-width="0.8" fill="none"/>
    <path d="M-20,-5 L-5,-2" stroke="#1a237e" stroke-width="0.8" fill="none"/>
    <path d="M-20,0 L-5,3" stroke="#1a237e" stroke-width="0.8" fill="none"/>
    <path d="M5,-7 L20,-10" stroke="#1a237e" stroke-width="0.8" fill="none"/>
    <path d="M5,-2 L20,-5" stroke="#1a237e" stroke-width="0.8" fill="none"/>
    <path d="M5,3 L20,0" stroke="#1a237e" stroke-width="0.8" fill="none"/>
  </g>
  <!-- SPMVV text -->
  <text x="100" y="115" text-anchor="middle" fill="white" font-family="serif" font-size="22" font-weight="bold">SPMVV</text>
  <!-- University text -->
  <text x="100" y="135" text-anchor="middle" fill="#f9a825" font-family="sans-serif" font-size="8" font-weight="bold">SRI PADMAVATI MAHILA</text>
  <text x="100" y="147" text-anchor="middle" fill="#f9a825" font-family="sans-serif" font-size="8" font-weight="bold">VISVAVIDYALAYAM</text>
  <!-- Tirupati -->
  <text x="100" y="165" text-anchor="middle" fill="white" font-family="sans-serif" font-size="7" opacity="0.8">TIRUPATI</text>
</svg>
